# xmcd
#
# Track frame offsets:
#	150
#	14748
#	34296
#	51969
#	66717
#	81090
#	96363
#	115986
#	133434
#	150882
#	166680
#	185853
#	199701
#	216399
#	234372
#	251970
#	267918
#	282141
#
# Disc length: 3993 seconds
#
# Revision: 0
# Processed by: cddbd v1.5.2PL0 Copyright (c) Steve Scherf et al.
# Submitted via: audiograbber 1.83.01
#
DISCID=160f9712
DTITLE=Reba McEntire - Reba #1's - Disc 2
DYEAR=2005
DGENRE=Country
TTITLE0=Love Needs a Holiday
TTITLE1=For My Broken Heart
TTITLE2=Is There Life Out There
TTITLE3=The Greatest Man I Never Knew
TTITLE4=It's Your Call
TTITLE5=The Heart Won't Lie (with Vince Gill)
TTITLE6=Does He Love You (with Linda Davis)
TTITLE7=Till You Love Me
TTITLE8=The Heart Is a Lonely Hunter
TTITLE9=And Still
TTITLE10=Ring on Her Fiinger, Time on Her Hands
TTITLE11=The Fear of Being Alone
TTITLE12=How Was I To Know
TTITLE13=If You See Him, If You See Her (with Brooks and Dunn)
TTITLE14=Forever Love
TTITLE15=What Do You Say
TTITLE16=I'm a Survivor
TTITLE17=Somebody
EXTD=
EXTT0=
EXTT1=
EXTT2=
EXTT3=
EXTT4=
EXTT5=
EXTT6=
EXTT7=
EXTT8=
EXTT9=
EXTT10=
EXTT11=
EXTT12=
EXTT13=
EXTT14=
EXTT15=
EXTT16=
EXTT17=
PLAYORDER=
